<?xml version="1.0" encoding="UTF-8"?>
<!DOCTYPE svg PUBLIC "-//W3C//DTD SVG 1.1//EN"
    "http://www.w3.org/Graphics/SVG/1.1/DTD/svg11.dtd"><svg xmlns="http://www.w3.org/2000/svg" height="82.3529" stroke-opacity="1" viewBox="0 0 700 82" font-size="1" width="700.0000" xmlns:xlink="http://www.w3.org/1999/xlink" stroke="rgb(0,0,0)" version="1.1"><defs></defs><g stroke-linejoin="miter" stroke-opacity="1.0" fill-opacity="1.0" stroke="rgb(0,0,0)" stroke-width="0.0" fill="rgb(215,156,247)" stroke-linecap="butt" stroke-miterlimit="10.0"><path d="M 686.2745,41.1765 c 0.0000,-15.1608 -12.2902,-27.4510 -27.4510 -27.4510c -15.1608,-0.0000 -27.4510,12.2902 -27.4510 27.4510c -0.0000,15.1608 12.2902,27.4510 27.4510 27.4510c 15.1608,0.0000 27.4510,-12.2902 27.4510 -27.4510Z"/></g><g stroke-linejoin="miter" stroke-opacity="1.0" fill-opacity="1.0" stroke="rgb(0,0,0)" stroke-width="0.0" fill="rgb(238,189,252)" stroke-linecap="butt" stroke-miterlimit="10.0"><path d="M 617.6471,41.1765 c 0.0000,-15.1608 -12.2902,-27.4510 -27.4510 -27.4510c -15.1608,-0.0000 -27.4510,12.2902 -27.4510 27.4510c -0.0000,15.1608 12.2902,27.4510 27.4510 27.4510c 15.1608,0.0000 27.4510,-12.2902 27.4510 -27.4510Z"/></g><g stroke-linejoin="miter" stroke-opacity="1.0" fill-opacity="1.0" stroke="rgb(0,0,0)" stroke-width="0.0" fill="rgb(255,158,197)" stroke-linecap="butt" stroke-miterlimit="10.0"><path d="M 549.0196,41.1765 c 0.0000,-15.1608 -12.2902,-27.4510 -27.4510 -27.4510c -15.1608,-0.0000 -27.4510,12.2902 -27.4510 27.4510c -0.0000,15.1608 12.2902,27.4510 27.4510 27.4510c 15.1608,0.0000 27.4510,-12.2902 27.4510 -27.4510Z"/></g><g stroke-linejoin="miter" stroke-opacity="1.0" fill-opacity="1.0" stroke="rgb(0,0,0)" stroke-width="0.0" fill="rgb(242,216,136)" stroke-linecap="butt" stroke-miterlimit="10.0"><path d="M 480.3922,41.1765 c 0.0000,-15.1608 -12.2902,-27.4510 -27.4510 -27.4510c -15.1608,-0.0000 -27.4510,12.2902 -27.4510 27.4510c -0.0000,15.1608 12.2902,27.4510 27.4510 27.4510c 15.1608,0.0000 27.4510,-12.2902 27.4510 -27.4510Z"/></g><g stroke-linejoin="miter" stroke-opacity="1.0" fill-opacity="1.0" stroke="rgb(0,0,0)" stroke-width="0.0" fill="rgb(252,167,217)" stroke-linecap="butt" stroke-miterlimit="10.0"><path d="M 411.7647,41.1765 c 0.0000,-15.1608 -12.2902,-27.4510 -27.4510 -27.4510c -15.1608,-0.0000 -27.4510,12.2902 -27.4510 27.4510c -0.0000,15.1608 12.2902,27.4510 27.4510 27.4510c 15.1608,0.0000 27.4510,-12.2902 27.4510 -27.4510Z"/></g><g stroke-linejoin="miter" stroke-opacity="1.0" fill-opacity="1.0" stroke="rgb(0,0,0)" stroke-width="0.0" fill="rgb(137,115,222)" stroke-linecap="butt" stroke-miterlimit="10.0"><path d="M 343.1373,41.1765 c 0.0000,-15.1608 -12.2902,-27.4510 -27.4510 -27.4510c -15.1608,-0.0000 -27.4510,12.2902 -27.4510 27.4510c -0.0000,15.1608 12.2902,27.4510 27.4510 27.4510c 15.1608,0.0000 27.4510,-12.2902 27.4510 -27.4510Z"/></g><g stroke-linejoin="miter" stroke-opacity="1.0" fill-opacity="1.0" stroke="rgb(0,0,0)" stroke-width="0.0" fill="rgb(190,184,245)" stroke-linecap="butt" stroke-miterlimit="10.0"><path d="M 274.5098,41.1765 c 0.0000,-15.1608 -12.2902,-27.4510 -27.4510 -27.4510c -15.1608,-0.0000 -27.4510,12.2902 -27.4510 27.4510c -0.0000,15.1608 12.2902,27.4510 27.4510 27.4510c 15.1608,0.0000 27.4510,-12.2902 27.4510 -27.4510Z"/></g><g stroke-linejoin="miter" stroke-opacity="1.0" fill-opacity="1.0" stroke="rgb(0,0,0)" stroke-width="0.0" fill="rgb(250,167,221)" stroke-linecap="butt" stroke-miterlimit="10.0"><path d="M 205.8824,41.1765 c 0.0000,-15.1608 -12.2902,-27.4510 -27.4510 -27.4510c -15.1608,-0.0000 -27.4510,12.2902 -27.4510 27.4510c -0.0000,15.1608 12.2902,27.4510 27.4510 27.4510c 15.1608,0.0000 27.4510,-12.2902 27.4510 -27.4510Z"/></g><g stroke-linejoin="miter" stroke-opacity="1.0" fill-opacity="1.0" stroke="rgb(0,0,0)" stroke-width="0.0" fill="rgb(237,123,203)" stroke-linecap="butt" stroke-miterlimit="10.0"><path d="M 137.2549,41.1765 c 0.0000,-15.1608 -12.2902,-27.4510 -27.4510 -27.4510c -15.1608,-0.0000 -27.4510,12.2902 -27.4510 27.4510c -0.0000,15.1608 12.2902,27.4510 27.4510 27.4510c 15.1608,0.0000 27.4510,-12.2902 27.4510 -27.4510Z"/></g><g stroke-linejoin="miter" stroke-opacity="1.0" fill-opacity="1.0" stroke="rgb(0,0,0)" stroke-width="0.0" fill="rgb(211,250,147)" stroke-linecap="butt" stroke-miterlimit="10.0"><path d="M 68.6275,41.1765 c 0.0000,-15.1608 -12.2902,-27.4510 -27.4510 -27.4510c -15.1608,-0.0000 -27.4510,12.2902 -27.4510 27.4510c -0.0000,15.1608 12.2902,27.4510 27.4510 27.4510c 15.1608,0.0000 27.4510,-12.2902 27.4510 -27.4510Z"/></g></svg>