<?xml version="1.0" encoding="UTF-8"?>
<!DOCTYPE svg PUBLIC "-//W3C//DTD SVG 1.1//EN"
    "http://www.w3.org/Graphics/SVG/1.1/DTD/svg11.dtd"><svg xmlns="http://www.w3.org/2000/svg" height="80.7692" stroke-opacity="1" viewBox="0 0 350 81" font-size="1" width="350.0000" xmlns:xlink="http://www.w3.org/1999/xlink" stroke="rgb(0,0,0)" version="1.1"><defs></defs><g stroke-linejoin="miter" stroke-opacity="1.0" fill-opacity="1.0" stroke="rgb(0,0,0)" stroke-width="0.0" fill="rgb(148,-120,-256)" stroke-linecap="butt" stroke-miterlimit="10.0"><path d="M 336.5385,40.3846 c 0.0000,-14.8692 -12.0539,-26.9231 -26.9231 -26.9231c -14.8692,-0.0000 -26.9231,12.0539 -26.9231 26.9231c -0.0000,14.8692 12.0539,26.9231 26.9231 26.9231c 14.8692,0.0000 26.9231,-12.0539 26.9231 -26.9231Z"/></g><g stroke-linejoin="miter" stroke-opacity="1.0" fill-opacity="1.0" stroke="rgb(0,0,0)" stroke-width="0.0" fill="rgb(-256,148,-105)" stroke-linecap="butt" stroke-miterlimit="10.0"><path d="M 269.2308,40.3846 c 0.0000,-14.8692 -12.0539,-26.9231 -26.9231 -26.9231c -14.8692,-0.0000 -26.9231,12.0539 -26.9231 26.9231c -0.0000,14.8692 12.0539,26.9231 26.9231 26.9231c 14.8692,0.0000 26.9231,-12.0539 26.9231 -26.9231Z"/></g><g stroke-linejoin="miter" stroke-opacity="1.0" fill-opacity="1.0" stroke="rgb(0,0,0)" stroke-width="0.0" fill="rgb(-14,29,143)" stroke-linecap="butt" stroke-miterlimit="10.0"><path d="M 201.9231,40.3846 c 0.0000,-14.8692 -12.0539,-26.9231 -26.9231 -26.9231c -14.8692,-0.0000 -26.9231,12.0539 -26.9231 26.9231c -0.0000,14.8692 12.0539,26.9231 26.9231 26.9231c 14.8692,0.0000 26.9231,-12.0539 26.9231 -26.9231Z"/></g><g stroke-linejoin="miter" stroke-opacity="1.0" fill-opacity="1.0" stroke="rgb(0,0,0)" stroke-width="0.0" fill="rgb(210,184,181)" stroke-linecap="butt" stroke-miterlimit="10.0"><path d="M 134.6154,40.3846 c 0.0000,-14.8692 -12.0539,-26.9231 -26.9231 -26.9231c -14.8692,-0.0000 -26.9231,12.0539 -26.9231 26.9231c -0.0000,14.8692 12.0539,26.9231 26.9231 26.9231c 14.8692,0.0000 26.9231,-12.0539 26.9231 -26.9231Z"/></g><g stroke-linejoin="miter" stroke-opacity="1.0" fill-opacity="1.0" stroke="rgb(0,0,0)" stroke-width="0.0" fill="rgb(-256,98,148)" stroke-linecap="butt" stroke-miterlimit="10.0"><path d="M 67.3077,40.3846 c 0.0000,-14.8692 -12.0539,-26.9231 -26.9231 -26.9231c -14.8692,-0.0000 -26.9231,12.0539 -26.9231 26.9231c -0.0000,14.8692 12.0539,26.9231 26.9231 26.9231c 14.8692,0.0000 26.9231,-12.0539 26.9231 -26.9231Z"/></g></svg>